ffmpeg started on 2025-05-26 at 18:52:19
Report written to "D:\Convert\FFMetrics\reports\psnr_report-6.txt"
Log level: 32
Command line:
ffmpeg -hide_banner -nostdin -i "G:\\\xc0\xed\xe8\xec\xe5\\\xce\xed\xe3\xee\xe8\xed\xe3\xe8\\!_34_\xc2\xe5\xf1\xed\xe0_2024\\DreamCast\\\xc7\xe0\xe1\xe2\xe5\xed\xe8\xe5 \xe1\xfd\xf2\xf2\xe5\xf0\xe8\\[DC] Boukyaku Battery - 10_Telegram_HEVC.mkv" -i "G:\\\xc0\xed\xe8\xec\xe5\\\xce\xed\xe3\xee\xe8\xed\xe3\xe8\\!_34_\xc2\xe5\xf1\xed\xe0_2024\\DreamCast\\\xc7\xe0\xe1\xe2\xe5\xed\xe8\xe5 \xe1\xfd\xf2\xf2\xe5\xf0\xe8\\[DC] Boukyaku Battery - 10_Telegram.mp4" -lavfi "[0:v]settb=AVTB,setpts=PTS-STARTPTS,format=pix_fmts=yuv420p10,fps=24000/1001,scale=1920:1080:flags=bicubic[main];[1:v]settb=AVTB,setpts=PTS-STARTPTS,format=pix_fmts=yuv420p,fps=24000/1001,scale=1920:1080:flags=bicubic[ref];[main][ref]psnr=eof_action=endall:stats_file='D\\:/Convert/FFMetrics/logs/psnr_logfile-6.txt'" -f null -
Input #0, matroska,webm, from 'G:\Аниме\Онгоинги\!_34_Весна_2024\DreamCast\Забвение бэттери\[DC] Boukyaku Battery - 10_Telegram_HEVC.mkv':
  Metadata:
    COMPATIBLE_BRANDS: isomiso2avc1mp41
    MAJOR_BRAND     : isom
    MINOR_VERSION   : 512
    ENCODER         : Lavf61.7.100
  Duration: 00:24:01.67, start: -0.021000, bitrate: 1316 kb/s
  Stream #0:0: Video: hevc (Main 10), yuv420p10le(tv, bt709, progressive), 1920x1080 [SAR 1:1 DAR 16:9], 23.98 fps, 23.98 tbr, 1k tbn (default)
      Metadata:
        HANDLER_NAME    : VideoHandler
        VENDOR_ID       : [0][0][0][0]
        ENCODER         : Lavc61.19.100 libx265
        BPS             : 1119549
        DURATION        : 00:24:01.481708333
        NUMBER_OF_FRAMES: 34561
        NUMBER_OF_BYTES : 201726245
        _STATISTICS_WRITING_APP: mkvpropedit v66.0.0 ('Josie') 64-bit
        _STATISTICS_WRITING_DATE_UTC: 2025-05-26 11:56:46
        _STATISTICS_TAGS: BPS DURATION NUMBER_OF_FRAMES NUMBER_OF_BYTES
  Stream #0:1: Audio: aac (LC), 48000 Hz, stereo, fltp (default)
      Metadata:
        HANDLER_NAME    : SoundHandler
        VENDOR_ID       : [0][0][0][0]
        ENCODER         : Lavc61.19.100 aac
        BPS             : 193413
        DURATION        : 00:24:01.664000000
        NUMBER_OF_FRAMES: 67579
        NUMBER_OF_BYTES : 34854726
        _STATISTICS_WRITING_APP: mkvpropedit v66.0.0 ('Josie') 64-bit
        _STATISTICS_WRITING_DATE_UTC: 2025-05-26 11:56:46
        _STATISTICS_TAGS: BPS DURATION NUMBER_OF_FRAMES NUMBER_OF_BYTES
Input #1, mov,mp4,m4a,3gp,3g2,mj2, from 'G:\Аниме\Онгоинги\!_34_Весна_2024\DreamCast\Забвение бэттери\[DC] Boukyaku Battery - 10_Telegram.mp4':
  Metadata:
    major_brand     : isom
    minor_version   : 512
    compatible_brands: isomiso2avc1mp41
    encoder         : Lavf60.16.100
  Duration: 00:24:01.61, start: 0.000000, bitrate: 3897 kb/s
  Stream #1:0[0x1](und): Video: h264 (High) (avc1 / 0x31637661), yuv420p(tv, bt709, progressive), 1920x1080 [SAR 1:1 DAR 16:9], 3750 kb/s, 23.98 fps, 23.98 tbr, 24k tbn (default)
      Metadata:
        handler_name    : VideoHandler
        vendor_id       : [0][0][0][0]
        encoder         : Lavc60.31.102 h264_qsv
  Stream #1:1[0x2](und): Audio: aac (HE-AACv2) (mp4a / 0x6134706D), 48000 Hz, stereo, fltp, 144 kb/s (default)
      Metadata:
        handler_name    : SoundHandler
        vendor_id       : [0][0][0][0]
Stream mapping:
  Stream #0:0 (hevc) -> settb:default
  Stream #1:0 (h264) -> settb:default
  psnr:default -> Stream #0:0 (wrapped_avframe)
  Stream #0:1 -> #0:1 (aac (native) -> pcm_s16le (native))
Output #0, null, to 'pipe:':
  Metadata:
    COMPATIBLE_BRANDS: isomiso2avc1mp41
    MAJOR_BRAND     : isom
    MINOR_VERSION   : 512
    encoder         : Lavf61.7.100
  Stream #0:0: Video: wrapped_avframe, yuv420p10le(tv, bt709, progressive), 1920x1080 [SAR 1:1 DAR 16:9], q=2-31, 200 kb/s, 23.98 fps, 23.98 tbn
      Metadata:
        encoder         : Lavc61.19.100 wrapped_avframe
  Stream #0:1: Audio: pcm_s16le, 48000 Hz, stereo, s16, 1536 kb/s (default)
      Metadata:
        HANDLER_NAME    : SoundHandler
        VENDOR_ID       : [0][0][0][0]
        _STATISTICS_TAGS: BPS DURATION NUMBER_OF_FRAMES NUMBER_OF_BYTES
        BPS             : 193413
        DURATION        : 00:24:01.664000000
        NUMBER_OF_FRAMES: 67579
        NUMBER_OF_BYTES : 34854726
        _STATISTICS_WRITING_APP: mkvpropedit v66.0.0 ('Josie') 64-bit
        _STATISTICS_WRITING_DATE_UTC: 2025-05-26 11:56:46
        encoder         : Lavc61.19.100 pcm_s16le
frame=  180 fps=0.0 q=-0.0 size=N/A time=00:00:07.50 bitrate=N/A speed=14.5x    frame=  427 fps=409 q=-0.0 size=N/A time=00:00:17.80 bitrate=N/A speed=17.1x    frame=  705 fps=455 q=-0.0 size=N/A time=00:00:29.40 bitrate=N/A speed=  19x    frame=  968 fps=470 q=-0.0 size=N/A time=00:00:40.37 bitrate=N/A speed=19.6x    frame= 1206 fps=467 q=-0.0 size=N/A time=00:00:50.30 bitrate=N/A speed=19.5x    frame= 1461 fps=472 q=-0.0 size=N/A time=00:01:00.93 bitrate=N/A speed=19.7x    frame= 1711 fps=473 q=-0.0 size=N/A time=00:01:11.36 bitrate=N/A speed=19.7x    frame= 1985 fps=481 q=-0.0 size=N/A time=00:01:22.79 bitrate=N/A speed=20.1x    frame= 2265 fps=487 q=-0.0 size=N/A time=00:01:34.46 bitrate=N/A speed=20.3x    frame= 2501 fps=485 q=-0.0 size=N/A time=00:01:44.31 bitrate=N/A speed=20.2x    frame= 2742 fps=483 q=-0.0 size=N/A time=00:01:54.36 bitrate=N/A speed=20.1x    frame= 2940 fps=475 q=-0.0 size=N/A time=00:02:02.62 bitrate=N/A speed=19.8x    frame= 3157 fps=471 q=-0.0 size=N/A time=00:02:11.67 bitrate=N/A speed=19.6x    frame= 3381 fps=468 q=-0.0 size=N/A time=00:02:21.01 bitrate=N/A speed=19.5x    frame= 3569 fps=461 q=-0.0 size=N/A time=00:02:28.85 bitrate=N/A speed=19.2x    frame= 3780 fps=458 q=-0.0 size=N/A time=00:02:37.65 bitrate=N/A speed=19.1x    frame= 3970 fps=453 q=-0.0 size=N/A time=00:02:45.58 bitrate=N/A speed=18.9x    frame= 4178 fps=450 q=-0.0 size=N/A time=00:02:54.25 bitrate=N/A speed=18.8x    frame= 4406 fps=450 q=-0.0 size=N/A time=00:03:03.76 bitrate=N/A speed=18.8x    frame= 4643 fps=450 q=-0.0 size=N/A time=00:03:13.65 bitrate=N/A speed=18.8x    frame= 4858 fps=449 q=-0.0 size=N/A time=00:03:22.61 bitrate=N/A speed=18.7x    frame= 5059 fps=446 q=-0.0 size=N/A time=00:03:31.00 bitrate=N/A speed=18.6x    frame= 5261 fps=444 q=-0.0 size=N/A time=00:03:39.42 bitrate=N/A speed=18.5x    frame= 5479 fps=442 q=-0.0 size=N/A time=00:03:48.51 bitrate=N/A speed=18.5x    frame= 5687 fps=441 q=-0.0 size=N/A time=00:03:57.19 bitrate=N/A speed=18.4x    frame= 5901 fps=440 q=-0.0 size=N/A time=00:04:06.12 bitrate=N/A speed=18.3x    frame= 6117 fps=439 q=-0.0 size=N/A time=00:04:15.12 bitrate=N/A speed=18.3x    frame= 6356 fps=440 q=-0.0 size=N/A time=00:04:25.09 bitrate=N/A speed=18.4x    frame= 6620 fps=443 q=-0.0 size=N/A time=00:04:36.10 bitrate=N/A speed=18.5x    frame= 6900 fps=446 q=-0.0 size=N/A time=00:04:47.78 bitrate=N/A speed=18.6x    frame= 7137 fps=447 q=-0.0 size=N/A time=00:04:57.67 bitrate=N/A speed=18.6x    frame= 7407 fps=449 q=-0.0 size=N/A time=00:05:08.93 bitrate=N/A speed=18.7x    frame= 7667 fps=451 q=-0.0 size=N/A time=00:05:19.77 bitrate=N/A speed=18.8x    frame= 7931 fps=452 q=-0.0 size=N/A time=00:05:30.78 bitrate=N/A speed=18.9x    frame= 8191 fps=454 q=-0.0 size=N/A time=00:05:41.63 bitrate=N/A speed=18.9x    frame= 8420 fps=453 q=-0.0 size=N/A time=00:05:51.18 bitrate=N/A speed=18.9x    frame= 8631 fps=452 q=-0.0 size=N/A time=00:05:59.98 bitrate=N/A speed=18.9x    frame= 8845 fps=451 q=-0.0 size=N/A time=00:06:08.91 bitrate=N/A speed=18.8x    frame= 9073 fps=451 q=-0.0 size=N/A time=00:06:18.41 bitrate=N/A speed=18.8x    frame= 9309 fps=451 q=-0.0 size=N/A time=00:06:28.26 bitrate=N/A speed=18.8x    frame= 9584 fps=453 q=-0.0 size=N/A time=00:06:39.73 bitrate=N/A speed=18.9x    frame= 9852 fps=454 q=-0.0 size=N/A time=00:06:50.91 bitrate=N/A speed=  19x    frame=10076 fps=454 q=-0.0 size=N/A time=00:07:00.25 bitrate=N/A speed=18.9x    frame=10298 fps=454 q=-0.0 size=N/A time=00:07:09.51 bitrate=N/A speed=18.9x    frame=10524 fps=453 q=-0.0 size=N/A time=00:07:18.93 bitrate=N/A speed=18.9x    frame=10797 fps=455 q=-0.0 size=N/A time=00:07:30.32 bitrate=N/A speed=  19x    frame=11056 fps=456 q=-0.0 size=N/A time=00:07:41.12 bitrate=N/A speed=  19x    frame=11305 fps=456 q=-0.0 size=N/A time=00:07:51.51 bitrate=N/A speed=  19x    frame=11588 fps=458 q=-0.0 size=N/A time=00:08:03.31 bitrate=N/A speed=19.1x    frame=11818 fps=458 q=-0.0 size=N/A time=00:08:12.90 bitrate=N/A speed=19.1x    frame=12053 fps=458 q=-0.0 size=N/A time=00:08:22.71 bitrate=N/A speed=19.1x    frame=12284 fps=458 q=-0.0 size=N/A time=00:08:32.34 bitrate=N/A speed=19.1x    frame=12543 fps=459 q=-0.0 size=N/A time=00:08:43.14 bitrate=N/A speed=19.1x    frame=12794 fps=459 q=-0.0 size=N/A time=00:08:53.61 bitrate=N/A speed=19.2x    frame=13055 fps=460 q=-0.0 size=N/A time=00:09:04.50 bitrate=N/A speed=19.2x    frame=13293 fps=460 q=-0.0 size=N/A time=00:09:14.42 bitrate=N/A speed=19.2x    frame=13551 fps=461 q=-0.0 size=N/A time=00:09:25.18 bitrate=N/A speed=19.2x    frame=13796 fps=461 q=-0.0 size=N/A time=00:09:35.40 bitrate=N/A speed=19.2x    frame=14042 fps=461 q=-0.0 size=N/A time=00:09:45.66 bitrate=N/A speed=19.2x    frame=14277 fps=461 q=-0.0 size=N/A time=00:09:55.46 bitrate=N/A speed=19.2x    frame=14486 fps=460 q=-0.0 size=N/A time=00:10:04.18 bitrate=N/A speed=19.2x    frame=14744 fps=461 q=-0.0 size=N/A time=00:10:14.94 bitrate=N/A speed=19.2x    frame=15005 fps=462 q=-0.0 size=N/A time=00:10:25.83 bitrate=N/A speed=19.3x    frame=15284 fps=463 q=-0.0 size=N/A time=00:10:37.47 bitrate=N/A speed=19.3x    frame=15550 fps=464 q=-0.0 size=N/A time=00:10:48.56 bitrate=N/A speed=19.3x    frame=15767 fps=463 q=-0.0 size=N/A time=00:10:57.61 bitrate=N/A speed=19.3x    frame=16022 fps=463 q=-0.0 size=N/A time=00:11:08.25 bitrate=N/A speed=19.3x    frame=16280 fps=464 q=-0.0 size=N/A time=00:11:19.01 bitrate=N/A speed=19.4x    frame=16535 fps=465 q=-0.0 size=N/A time=00:11:29.64 bitrate=N/A speed=19.4x    frame=16752 fps=464 q=-0.0 size=N/A time=00:11:38.69 bitrate=N/A speed=19.3x    frame=16935 fps=462 q=-0.0 size=N/A time=00:11:46.33 bitrate=N/A speed=19.3x    frame=17187 fps=463 q=-0.0 size=N/A time=00:11:56.84 bitrate=N/A speed=19.3x    frame=17456 fps=464 q=-0.0 size=N/A time=00:12:08.06 bitrate=N/A speed=19.3x    frame=17685 fps=463 q=-0.0 size=N/A time=00:12:17.61 bitrate=N/A speed=19.3x    frame=17905 fps=463 q=-0.0 size=N/A time=00:12:26.82 bitrate=N/A speed=19.3x    frame=18142 fps=463 q=-0.0 size=N/A time=00:12:36.67 bitrate=N/A speed=19.3x    frame=18365 fps=462 q=-0.0 size=N/A time=00:12:45.97 bitrate=N/A speed=19.3x    frame=18635 fps=463 q=-0.0 size=N/A time=00:12:57.23 bitrate=N/A speed=19.3x    frame=18876 fps=463 q=-0.0 size=N/A time=00:13:07.28 bitrate=N/A speed=19.3x    frame=19118 fps=463 q=-0.0 size=N/A time=00:13:17.37 bitrate=N/A speed=19.3x    frame=19334 fps=462 q=-0.0 size=N/A time=00:13:26.38 bitrate=N/A speed=19.3x    frame=19535 fps=462 q=-0.0 size=N/A time=00:13:34.77 bitrate=N/A speed=19.3x    frame=19782 fps=462 q=-0.0 size=N/A time=00:13:45.07 bitrate=N/A speed=19.3x    frame=20030 fps=462 q=-0.0 size=N/A time=00:13:55.41 bitrate=N/A speed=19.3x    frame=20259 fps=462 q=-0.0 size=N/A time=00:14:04.96 bitrate=N/A speed=19.3x    frame=20512 fps=462 q=-0.0 size=N/A time=00:14:15.52 bitrate=N/A speed=19.3x    frame=20779 fps=463 q=-0.0 size=N/A time=00:14:26.65 bitrate=N/A speed=19.3x    frame=21051 fps=464 q=-0.0 size=N/A time=00:14:38.00 bitrate=N/A speed=19.3x    frame=21320 fps=464 q=-0.0 size=N/A time=00:14:49.22 bitrate=N/A speed=19.4x    frame=21593 fps=465 q=-0.0 size=N/A time=00:15:00.60 bitrate=N/A speed=19.4x    frame=21850 fps=465 q=-0.0 size=N/A time=00:15:11.32 bitrate=N/A speed=19.4x    frame=22120 fps=466 q=-0.0 size=N/A time=00:15:22.58 bitrate=N/A speed=19.4x    frame=22380 fps=466 q=-0.0 size=N/A time=00:15:33.43 bitrate=N/A speed=19.5x    frame=22626 fps=466 q=-0.0 size=N/A time=00:15:43.69 bitrate=N/A speed=19.5x    frame=22876 fps=467 q=-0.0 size=N/A time=00:15:54.11 bitrate=N/A speed=19.5x    frame=23107 fps=466 q=-0.0 size=N/A time=00:16:03.75 bitrate=N/A speed=19.5x    frame=23374 fps=467 q=-0.0 size=N/A time=00:16:14.93 bitrate=N/A speed=19.5x    frame=23616 fps=467 q=-0.0 size=N/A time=00:16:24.98 bitrate=N/A speed=19.5x    frame=23864 fps=467 q=-0.0 size=N/A time=00:16:35.32 bitrate=N/A speed=19.5x    frame=24112 fps=467 q=-0.0 size=N/A time=00:16:45.67 bitrate=N/A speed=19.5x    frame=24359 fps=467 q=-0.0 size=N/A time=00:16:55.97 bitrate=N/A speed=19.5x    frame=24600 fps=467 q=-0.0 size=N/A time=00:17:06.02 bitrate=N/A speed=19.5x    frame=24820 fps=467 q=-0.0 size=N/A time=00:17:15.20 bitrate=N/A speed=19.5x    frame=25042 fps=467 q=-0.0 size=N/A time=00:17:24.46 bitrate=N/A speed=19.5x    frame=25287 fps=467 q=-0.0 size=N/A time=00:17:34.67 bitrate=N/A speed=19.5x    frame=25522 fps=467 q=-0.0 size=N/A time=00:17:44.48 bitrate=N/A speed=19.5x    frame=25747 fps=466 q=-0.0 size=N/A time=00:17:53.86 bitrate=N/A speed=19.5x    frame=26007 fps=467 q=-0.0 size=N/A time=00:18:04.70 bitrate=N/A speed=19.5x    frame=26246 fps=467 q=-0.0 size=N/A time=00:18:14.67 bitrate=N/A speed=19.5x    frame=26510 fps=467 q=-0.0 size=N/A time=00:18:25.68 bitrate=N/A speed=19.5x    frame=26763 fps=467 q=-0.0 size=N/A time=00:18:36.24 bitrate=N/A speed=19.5x    frame=27020 fps=468 q=-0.0 size=N/A time=00:18:46.95 bitrate=N/A speed=19.5x    frame=27291 fps=468 q=-0.0 size=N/A time=00:18:58.26 bitrate=N/A speed=19.5x    frame=27562 fps=469 q=-0.0 size=N/A time=00:19:09.56 bitrate=N/A speed=19.5x    frame=27841 fps=469 q=-0.0 size=N/A time=00:19:21.20 bitrate=N/A speed=19.6x    frame=28136 fps=470 q=-0.0 size=N/A time=00:19:33.50 bitrate=N/A speed=19.6x    frame=28396 fps=470 q=-0.0 size=N/A time=00:19:44.34 bitrate=N/A speed=19.6x    frame=28643 fps=470 q=-0.0 size=N/A time=00:19:54.65 bitrate=N/A speed=19.6x    frame=28914 fps=471 q=-0.0 size=N/A time=00:20:05.95 bitrate=N/A speed=19.6x    frame=29154 fps=471 q=-0.0 size=N/A time=00:20:15.96 bitrate=N/A speed=19.6x    frame=29385 fps=471 q=-0.0 size=N/A time=00:20:25.59 bitrate=N/A speed=19.6x    frame=29617 fps=471 q=-0.0 size=N/A time=00:20:35.27 bitrate=N/A speed=19.6x    frame=29863 fps=471 q=-0.0 size=N/A time=00:20:45.53 bitrate=N/A speed=19.6x    frame=30059 fps=470 q=-0.0 size=N/A time=00:20:53.71 bitrate=N/A speed=19.6x    frame=30340 fps=470 q=-0.0 size=N/A time=00:21:05.43 bitrate=N/A speed=19.6x    frame=30576 fps=470 q=-0.0 size=N/A time=00:21:15.27 bitrate=N/A speed=19.6x    frame=30802 fps=470 q=-0.0 size=N/A time=00:21:24.70 bitrate=N/A speed=19.6x    frame=31071 fps=471 q=-0.0 size=N/A time=00:21:35.91 bitrate=N/A speed=19.6x    frame=31323 fps=471 q=-0.0 size=N/A time=00:21:46.43 bitrate=N/A speed=19.6x    frame=31595 fps=471 q=-0.0 size=N/A time=00:21:57.77 bitrate=N/A speed=19.6x    frame=31839 fps=471 q=-0.0 size=N/A time=00:22:07.95 bitrate=N/A speed=19.7x    frame=32094 fps=471 q=-0.0 size=N/A time=00:22:18.58 bitrate=N/A speed=19.7x    frame=32303 fps=471 q=-0.0 size=N/A time=00:22:27.30 bitrate=N/A speed=19.6x    frame=32534 fps=471 q=-0.0 size=N/A time=00:22:36.93 bitrate=N/A speed=19.6x    frame=32755 fps=470 q=-0.0 size=N/A time=00:22:46.15 bitrate=N/A speed=19.6x    frame=32907 fps=469 q=-0.0 size=N/A time=00:22:52.49 bitrate=N/A speed=19.6x    frame=33099 fps=468 q=-0.0 size=N/A time=00:23:00.50 bitrate=N/A speed=19.5x    frame=33289 fps=468 q=-0.0 size=N/A time=00:23:08.42 bitrate=N/A speed=19.5x    frame=33481 fps=467 q=-0.0 size=N/A time=00:23:16.43 bitrate=N/A speed=19.5x    frame=33640 fps=466 q=-0.0 size=N/A time=00:23:23.06 bitrate=N/A speed=19.4x    frame=33807 fps=465 q=-0.0 size=N/A time=00:23:30.03 bitrate=N/A speed=19.4x    frame=33980 fps=464 q=-0.0 size=N/A time=00:23:37.24 bitrate=N/A speed=19.3x    frame=34179 fps=463 q=-0.0 size=N/A time=00:23:45.54 bitrate=N/A speed=19.3x    frame=34407 fps=463 q=-0.0 size=N/A time=00:23:55.05 bitrate=N/A speed=19.3x    [Parsed_psnr_10 @ 000001d65e7d3040] PSNR y:47.715056 u:50.079788 v:49.217837 average:48.263963 min:38.119723 max:inf
[out#0/null @ 000001d650bd4e80] video:14850KiB audio:270316KiB subtitle:0KiB other streams:0KiB global headers:0KiB muxing overhead: unknown
frame=34561 fps=463 q=-0.0 Lsize=N/A time=00:24:01.48 bitrate=N/A speed=19.3x    
